<svg viewBox="0 0 32 32" xmlns="http://www.w3.org/2000/svg">
    <path fill-rule="evenodd" clip-rule="evenodd"
          d="M15.3463 2.83786C15.7522 2.60955 16.2478 2.60955 16.6537 2.83786L27.3203 8.83786C27.7402 9.07402 28 9.51826 28 9.99996V22C28 22.4817 27.7402 22.9259 27.3203 23.1621L16.6537 29.1621C16.2478 29.3904 15.7522 29.3904 15.3463 29.1621L4.67965 23.1621C4.25982 22.9259 4 22.4817 4 22V9.99996C4 9.51826 4.25982 9.07402 4.67965 8.83786L15.3463 2.83786ZM6.66667 12.2798L14.6667 16.7798V25.7202L6.66667 21.2202V12.2798ZM17.3333 25.7202L25.3333 21.2202V12.2798L17.3333 16.7798V25.7202ZM16 14.4702L23.947 9.99996L21.1627 8.43375L13.5066 13.0676L16 14.4702ZM10.8374 11.5662L18.4934 6.93228L16 5.52976L8.05297 9.99996L10.8374 11.5662Z"/>
</svg>
