<svg class="p-CardCvcIcons-svg" viewBox="0 0 24 24" xmlns="http://www.w3.org/2000/svg"
     fill="#df1b41" role="img" aria-labelledby="cvcDesc">
    <path opacity=".4" fill-rule="evenodd" clip-rule="evenodd"
          d="M15.337 4A5.493 5.493 0 0013 8.5c0 1.33.472 2.55 1.257 3.5H4a1 1 0 00-1 1v1a1 1 0 001 1h16a1 1 0 001-1v-.6a5.526 5.526 0 002-1.737V18a2 2 0 01-2 2H3a2 2 0 01-2-2V6a2 2 0 012-2h12.337zm6.707.293c.239.202.46.424.662.663a2.01 2.01 0 00-.662-.663z"></path>
    <path opacity=".6" fill-rule="evenodd" clip-rule="evenodd" d="M13.6 6a5.477 5.477 0 00-.578 3H1V6h12.6z"></path>
    <path fill-rule="evenodd" clip-rule="evenodd"
          d="M18.5 14a5.5 5.5 0 110-11 5.5 5.5 0 010 11zm0-1.719a1.031 1.031 0 100-2.062 1.031 1.031 0 000 2.062zm0-7.906a.687.687 0 00-.688.688V8.5a.687.687 0 101.375 0V5.062a.687.687 0 00-.687-.687z"></path>
</svg>