<svg viewBox="0 0 20 20" xmlns="http://www.w3.org/2000/svg">
    <path
            fill-rule="evenodd"
            clip-rule="evenodd"
            d="M9.99955 2.91667C9.5179 2.91667 9.06268 3.10043 8.73237 3.41711C8.40325 3.73264 8.22523 4.15291 8.22523 4.58333V5.41667H11.7739V4.58333C11.7739 4.15291 11.5958 3.73264 11.2667 3.41711C10.9364 3.10043 10.4812 2.91667 9.99955 2.91667ZM13.4405 5.41667V4.58333C13.4405 3.68767 13.0691 2.83618 12.4201 2.21403C11.7724 1.59302 10.9011 1.25 9.99955 1.25C9.09801 1.25 8.2267 1.59302 7.57895 2.21403C6.93001 2.83618 6.55856 3.68767 6.55856 4.58333V5.41667H5.07205M6.55856 7.08333H5.07196C4.93617 7.08332 4.80291 7.11151 4.68183 7.16485C4.56082 7.21817 4.45607 7.29471 4.37339 7.3871C4.29081 7.47936 4.23206 7.5853 4.19883 7.69681C4.16564 7.80817 4.15811 7.92429 4.17631 8.03789C4.17631 8.03785 4.17632 8.03793 4.17631 8.03789L5.26718 14.8312C5.32884 15.2156 5.53314 15.5739 5.85311 15.8371C6.17385 16.1009 6.58815 16.25 7.02161 16.25C7.0216 16.25 7.02163 16.25 7.02161 16.25H12.9775C13.4111 16.2501 13.8258 16.1011 14.1466 15.8373C14.4667 15.5741 14.6711 15.2158 14.7328 14.8313L15.8236 8.03801C15.8419 7.92437 15.8343 7.80821 15.8011 7.69681C15.7679 7.5853 15.7092 7.47936 15.6266 7.3871C15.5439 7.29471 15.4391 7.21817 15.3181 7.16485C15.1971 7.11151 15.0639 7.08332 14.9281 7.08333H13.4405V8.75C13.4405 9.21024 13.0674 9.58333 12.6072 9.58333C12.147 9.58333 11.7739 9.21024 11.7739 8.75V7.08333H8.22523V8.75C8.22523 9.21024 7.85213 9.58333 7.3919 9.58333C6.93166 9.58333 6.55856 9.21024 6.55856 8.75V7.08333ZM13.4405 5.41667H14.9279C14.9279 5.41667 14.9279 5.41667 14.9279 5.41667C15.2934 5.41664 15.6557 5.49232 15.9901 5.63965C16.3246 5.78702 16.6247 6.00322 16.8685 6.27558C17.1123 6.54805 17.2939 6.87022 17.3984 7.22083C17.5029 7.57155 17.5272 7.9406 17.4693 8.30199L16.3784 15.0953C16.3784 15.0954 16.3784 15.0953 16.3784 15.0953C16.2506 15.8915 15.8309 16.6101 15.2052 17.1246C14.5803 17.6384 13.7899 17.9168 12.9775 17.9167C12.9774 17.9167 12.9776 17.9167 12.9775 17.9167H7.02161C6.20933 17.9166 5.41901 17.6381 4.79431 17.1242C4.16887 16.6097 3.74931 15.8915 3.62159 15.0955C3.62159 15.0954 3.6216 15.0955 3.62159 15.0955L2.53073 8.30212C2.47276 7.94074 2.49706 7.57155 2.60157 7.22083C2.70605 6.87022 2.88762 6.54805 3.13149 6.27558C3.37526 6.00322 3.67537 5.78702 4.00988 5.63965C4.34428 5.49232 4.70656 5.41664 5.07205 5.41667"
    />
</svg>