<svg viewBox="0 0 21 20" xmlns="http://www.w3.org/2000/svg">
    <path fill-rule="evenodd" clip-rule="evenodd"
          d="M2.1665 2.49935C2.1665 2.03911 2.5396 1.66602 2.99984 1.66602H5.49984C5.96007 1.66602 6.33317 2.03911 6.33317 2.49935V3.39008L17.2259 4.16813C17.4565 4.18461 17.6699 4.29617 17.8151 4.47614C17.9603 4.6561 18.0242 4.8883 17.9915 5.1172L17.1581 10.9505C17.0995 11.3611 16.7479 11.666 16.3332 11.666H6.33317V13.3327H14.6665C15.3295 13.3327 15.9654 13.5961 16.4343 14.0649C16.9031 14.5338 17.1665 15.1696 17.1665 15.8327C17.1665 16.4957 16.9031 17.1316 16.4343 17.6005C15.9654 18.0693 15.3295 18.3327 14.6665 18.3327C14.0035 18.3327 13.3676 18.0693 12.8987 17.6005C12.4299 17.1316 12.1665 16.4957 12.1665 15.8327C12.1665 15.5461 12.2157 15.2645 12.3095 14.9993H7.85686C7.95062 15.2645 7.99984 15.5461 7.99984 15.8327C7.99984 16.4957 7.73644 17.1316 7.2676 17.6005C6.79876 18.0693 6.16288 18.3327 5.49984 18.3327C4.8368 18.3327 4.20091 18.0693 3.73207 17.6005C3.26323 17.1316 2.99984 16.4957 2.99984 15.8327C2.99984 15.1696 3.26323 14.5338 3.73207 14.0649C3.99824 13.7987 4.31825 13.5988 4.6665 13.4757V4.17462C4.66646 4.16947 4.66646 4.16431 4.6665 4.15913V3.33268H2.99984C2.5396 3.33268 2.1665 2.95959 2.1665 2.49935ZM6.33317 5.061V9.99935H15.6104L16.2151 5.76685L14.3213 5.63158V7.91602C14.3213 8.37625 13.9482 8.74935 13.488 8.74935C13.0278 8.74935 12.6547 8.37625 12.6547 7.91602V5.51253L6.33317 5.061ZM5.49984 14.9993C5.27882 14.9993 5.06686 15.0871 4.91058 15.2434C4.7543 15.3997 4.6665 15.6117 4.6665 15.8327C4.6665 16.0537 4.7543 16.2657 4.91058 16.4219C5.06686 16.5782 5.27882 16.666 5.49984 16.666C5.72085 16.666 5.93281 16.5782 6.08909 16.4219C6.24537 16.2657 6.33317 16.0537 6.33317 15.8327C6.33317 15.6117 6.24537 15.3997 6.08909 15.2434C5.93281 15.0871 5.72085 14.9993 5.49984 14.9993ZM14.6665 14.9993C14.4455 14.9993 14.2335 15.0871 14.0772 15.2434C13.921 15.3997 13.8332 15.6117 13.8332 15.8327C13.8332 16.0537 13.921 16.2657 14.0772 16.4219C14.2335 16.5782 14.4455 16.666 14.6665 16.666C14.8875 16.666 15.0995 16.5782 15.2558 16.4219C15.412 16.2657 15.4998 16.0537 15.4998 15.8327C15.4998 15.6117 15.412 15.3997 15.2558 15.2434C15.0995 15.0871 14.8875 14.9993 14.6665 14.9993Z"
    ></path>
</svg>