<svg viewBox="0 0 32 32" xmlns="http://www.w3.org/2000/svg">
    <path fill-rule="evenodd" clip-rule="evenodd"
          d="M1.33203 6.66671C1.33203 5.93033 1.92898 5.33337 2.66536 5.33337H17.332C18.0684 5.33337 18.6654 5.93033 18.6654 6.66671H23.9987C24.467 6.66671 24.9011 6.91244 25.142 7.31405L29.142 13.9807C29.2664 14.1879 29.332 14.425 29.332 14.6667V22.6667C29.332 23.4031 28.7351 24 27.9987 24H26.4366C26.2396 24.5572 25.9197 25.0693 25.4938 25.4951C24.7436 26.2453 23.7262 26.6667 22.6654 26.6667C21.6045 26.6667 20.5871 26.2453 19.8369 25.4951C19.4111 25.0693 19.0911 24.5572 18.8941 24H13.1033C12.9063 24.5572 12.5863 25.0693 12.1605 25.4951C11.4103 26.2453 10.3929 26.6667 9.33203 26.6667C8.27116 26.6667 7.25375 26.2453 6.5036 25.4951C6.07773 25.0693 5.75781 24.5572 5.56079 24H3.9987C3.26232 24 2.66536 23.4031 2.66536 22.6667V17.3334C2.66536 16.597 3.26232 16 3.9987 16C4.73508 16 5.33203 16.597 5.33203 17.3334V21.3334H5.56079C5.75781 20.7762 6.07773 20.2642 6.5036 19.8383C7.25375 19.0881 8.27116 18.6667 9.33203 18.6667C10.3929 18.6667 11.4103 19.0881 12.1605 19.8383C12.5863 20.2642 12.9063 20.7762 13.1033 21.3334H15.9987V8.00004H2.66536C1.92898 8.00004 1.33203 7.40309 1.33203 6.66671ZM18.6654 9.33337V13.3334H25.6438L23.2438 9.33337H18.6654ZM26.6654 16H18.6654V21.3334H18.8941C19.0911 20.7762 19.4111 20.2642 19.8369 19.8383C20.5871 19.0881 21.6045 18.6667 22.6654 18.6667C23.7262 18.6667 24.7436 19.0881 25.4938 19.8383C25.9197 20.2642 26.2396 20.7762 26.4366 21.3334H26.6654V16ZM2.66536 12C2.66536 11.2637 3.26232 10.6667 3.9987 10.6667H9.33203C10.0684 10.6667 10.6654 11.2637 10.6654 12C10.6654 12.7364 10.0684 13.3334 9.33203 13.3334H3.9987C3.26232 13.3334 2.66536 12.7364 2.66536 12ZM9.33203 21.3334C8.97841 21.3334 8.63927 21.4738 8.38922 21.7239C8.13917 21.9739 7.9987 22.3131 7.9987 22.6667C7.9987 23.0203 8.13917 23.3595 8.38922 23.6095C8.63927 23.8596 8.97841 24 9.33203 24C9.68565 24 10.0248 23.8596 10.2748 23.6095C10.5249 23.3595 10.6654 23.0203 10.6654 22.6667C10.6654 22.3131 10.5249 21.9739 10.2748 21.7239C10.0248 21.4738 9.68565 21.3334 9.33203 21.3334ZM22.6654 21.3334C22.3117 21.3334 21.9726 21.4738 21.7226 21.7239C21.4725 21.9739 21.332 22.3131 21.332 22.6667C21.332 23.0203 21.4725 23.3595 21.7226 23.6095C21.9726 23.8596 22.3117 24 22.6654 24C23.019 24 23.3581 23.8596 23.6082 23.6095C23.8582 23.3595 23.9987 23.0203 23.9987 22.6667C23.9987 22.3131 23.8582 21.9739 23.6082 21.7239C23.3581 21.4738 23.019 21.3334 22.6654 21.3334Z"
    />
</svg>
