<svg viewBox="0 0 32 32" xmlns="http://www.w3.org/2000/svg">
    <path fill-rule="evenodd" clip-rule="evenodd"
          d="M16.9734 2.70214C16.8213 2.66635 16.663 2.65713 16.5061 2.67623C16.3382 2.66988 16.1699 2.66668 16.0013 2.66668C15.8327 2.66668 15.6644 2.66988 15.4966 2.67623C15.3396 2.65713 15.1813 2.66635 15.0292 2.70214C11.8484 2.93454 8.84356 4.30157 6.57321 6.57193C4.07273 9.07241 2.66797 12.4638 2.66797 16C2.66797 17.751 3.01285 19.4848 3.68291 21.1025C4.35297 22.7201 5.3351 24.19 6.57321 25.4281C7.81133 26.6662 9.28118 27.6483 10.8989 28.3184C12.2164 28.8641 13.6109 29.1942 15.029 29.2979C15.1812 29.3337 15.3396 29.3429 15.4966 29.3238C15.6646 29.3302 15.8329 29.3334 16.0013 29.3334C16.1697 29.3334 16.338 29.3302 16.506 29.3238C16.663 29.3429 16.8214 29.3337 16.9736 29.2979C18.3917 29.1942 19.7862 28.8641 21.1037 28.3184C22.7214 27.6483 24.1913 26.6662 25.4294 25.4281C26.6675 24.19 27.6496 22.7201 28.3197 21.1025C28.9898 19.4848 29.3346 17.751 29.3346 16C29.3346 12.4638 27.9299 9.07241 25.4294 6.57193C23.159 4.30157 20.1542 2.93454 16.9734 2.70214ZM12.8326 5.81485C11.197 6.32376 9.69239 7.22398 8.45883 8.45754C7.79389 9.12248 7.22581 9.86617 6.76367 10.6667H11.1643C11.545 8.99677 12.1038 7.36997 12.8326 5.81485ZM13.9083 10.6667C14.3743 8.86193 15.0764 7.11976 16.0013 5.48676C16.9262 7.11976 17.6283 8.86193 18.0943 10.6667H13.9083ZM10.7128 13.3334H5.67332C5.45025 14.1972 5.33464 15.0926 5.33464 16C5.33464 16.9016 5.44894 17.7976 5.67335 18.6667H10.7128C10.6142 17.784 10.5642 16.8938 10.5642 16C10.5642 15.1062 10.6142 14.216 10.7128 13.3334ZM13.3982 18.6667C13.2872 17.7852 13.2309 16.8946 13.2309 16C13.2309 15.1054 13.2872 14.2149 13.3982 13.3334H18.6044C18.7154 14.2149 18.7717 15.1054 18.7717 16C18.7717 16.8946 18.7154 17.7852 18.6044 18.6667H13.3982ZM11.1643 21.3334H6.7637C7.22879 22.1389 7.79827 22.8819 8.45883 23.5425C9.44932 24.533 10.6252 25.3187 11.9193 25.8547C12.2191 25.9789 12.5239 26.0891 12.8326 26.1852C12.1038 24.63 11.545 23.0033 11.1643 21.3334ZM16.0013 26.5133C15.0764 24.8803 14.3743 23.1381 13.9083 21.3334H18.0943C17.6283 23.1381 16.9262 24.8803 16.0013 26.5133ZM19.17 26.1852C19.4787 26.0891 19.7835 25.9789 20.0833 25.8547C21.3774 25.3187 22.5533 24.533 23.5438 23.5425C24.2043 22.8819 24.7738 22.1389 25.2389 21.3334H20.8383C20.4577 23.0033 19.8988 24.63 19.17 26.1852ZM21.2898 18.6667H26.3293C26.5537 17.7976 26.668 16.9016 26.668 16C26.668 15.0926 26.5524 14.1972 26.3293 13.3334H21.2898C21.3885 14.216 21.4384 15.1062 21.4384 16C21.4384 16.8938 21.3885 17.784 21.2898 18.6667ZM20.8383 10.6667H25.2389C24.7768 9.86617 24.2087 9.12248 23.5438 8.45754C22.3102 7.22398 20.8056 6.32376 19.17 5.81485C19.8988 7.36997 20.4577 8.99677 20.8383 10.6667Z"
    />
</svg>
